<svg xmlns="http://www.w3.org/2000/svg" xmlns:xlink="http://www.w3.org/1999/xlink" width="500" zoomAndPan="magnify" viewBox="0 0 375 374.999991" height="500" preserveAspectRatio="xMidYMid meet" version="1.2"><defs><clipPath id="4c15c9ded3"><path d="M 0 11 L 371 11 L 371 364 L 0 364 Z M 0 11 "/></clipPath><clipPath id="0a694850bc"><path d="M 345.019531 116.925781 C 329.652344 82.082031 308.035156 47.0625 273.011719 29.015625 C 269.796875 27.410156 266.402344 25.800781 263.007812 24.550781 C 246.390625 17.222656 228.882812 13.292969 210.835938 12.578125 C 208.332031 12.222656 205.652344 11.863281 202.972656 11.683594 C 185.820312 10.433594 170.277344 14.007812 155.980469 20.617188 C 129.894531 28.660156 104.523438 41.523438 83.082031 57.425781 C 55.03125 78.507812 31.804688 105.667969 17.867188 138.1875 C 9.648438 157.304688 5.003906 177.316406 2.5 198.042969 C -0.179688 219.484375 -1.609375 241.996094 3.039062 263.078125 C 11.257812 299.886719 41.632812 329.1875 74.6875 345.089844 C 109.347656 361.707031 148.121094 366.710938 186 361.707031 C 226.199219 356.347656 264.4375 340.445312 298.742188 319.003906 C 329.652344 299.707031 359.492188 273.621094 368.066406 236.636719 C 377.539062 195.363281 361.277344 154.089844 345.019531 116.925781 Z M 345.019531 116.925781 "/></clipPath><clipPath id="e7e366b9fa"><path d="M 0 0.28125 L 371 0.28125 L 371 352.601562 L 0 352.601562 Z M 0 0.28125 "/></clipPath><clipPath id="83594c06bc"><path d="M 345.019531 105.925781 C 329.652344 71.082031 308.035156 36.0625 273.011719 18.015625 C 269.796875 16.410156 266.402344 14.800781 263.007812 13.550781 C 246.390625 6.222656 228.882812 2.292969 210.835938 1.578125 C 208.332031 1.222656 205.652344 0.863281 202.972656 0.683594 C 185.820312 -0.566406 170.277344 3.007812 155.980469 9.617188 C 129.894531 17.660156 104.523438 30.523438 83.082031 46.425781 C 55.03125 67.507812 31.804688 94.667969 17.867188 127.1875 C 9.648438 146.304688 5.003906 166.316406 2.5 187.042969 C -0.179688 208.484375 -1.609375 230.996094 3.039062 252.078125 C 11.257812 288.886719 41.632812 318.1875 74.6875 334.089844 C 109.347656 350.707031 148.121094 355.710938 186 350.707031 C 226.199219 345.347656 264.4375 329.445312 298.742188 308.003906 C 329.652344 288.707031 359.492188 262.621094 368.066406 225.636719 C 377.539062 184.363281 361.277344 143.089844 345.019531 105.925781 Z M 345.019531 105.925781 "/></clipPath><clipPath id="47806686ad"><rect x="0" width="371" y="0" height="353"/></clipPath><clipPath id="365d932fa3"><path d="M 0 11.507812 L 371 11.507812 L 371 363.257812 L 0 363.257812 Z M 0 11.507812 "/></clipPath><clipPath id="41b9c70d52"><path d="M 345.015625 116.921875 C 329.648438 82.082031 308.03125 47.0625 273.011719 29.015625 C 269.792969 27.410156 266.398438 25.800781 263.003906 24.550781 C 246.386719 17.226562 228.878906 13.292969 210.832031 12.578125 C 208.332031 12.222656 205.652344 11.863281 202.972656 11.6875 C 185.816406 10.433594 170.273438 14.007812 155.980469 20.621094 C 129.894531 28.660156 104.523438 41.523438 83.082031 57.425781 C 55.03125 78.507812 31.804688 105.667969 17.867188 138.183594 C 9.648438 157.304688 5.003906 177.3125 2.5 198.039062 C -0.179688 219.480469 -1.609375 241.992188 3.039062 263.078125 C 11.257812 299.882812 41.628906 329.183594 74.683594 345.085938 C 109.347656 361.703125 148.117188 366.707031 185.996094 361.703125 C 226.199219 356.34375 264.433594 340.441406 298.738281 319 C 329.648438 299.703125 359.488281 273.617188 368.0625 236.632812 C 377.53125 195.359375 361.273438 154.085938 345.015625 116.921875 Z M 345.015625 116.921875 "/></clipPath><clipPath id="a4fbab2bba"><rect x="0" width="175" y="0" height="166"/></clipPath><clipPath id="f2f54f7a43"><path d="M 113 237.050781 L 145.863281 237.050781 L 145.863281 266.710938 L 113 266.710938 Z M 113 237.050781 "/></clipPath><clipPath id="468c57fb2e"><path d="M 114.941406 257.859375 C 140.34375 237.023438 141.136719 237.125 142.128906 237.320312 C 143.019531 237.621094 144.113281 238.3125 144.707031 239.007812 C 145.402344 239.800781 145.796875 240.992188 145.796875 241.984375 C 145.898438 242.976562 145.601562 244.265625 144.90625 245.058594 C 144.011719 246.050781 142.128906 247.144531 140.738281 247.144531 C 139.351562 247.042969 137.464844 245.855469 136.671875 244.761719 C 136.074219 243.96875 135.878906 242.679688 135.878906 241.6875 C 135.976562 240.695312 136.472656 239.605469 137.167969 238.808594 C 137.863281 238.117188 138.953125 237.421875 139.945312 237.222656 C 140.9375 237.125 142.226562 237.222656 143.121094 237.71875 C 144.011719 238.117188 144.90625 239.007812 145.300781 240 C 145.796875 241.191406 146.097656 242.777344 145.203125 244.5625 C 142.820312 249.523438 125.558594 263.117188 121.09375 265.597656 C 119.605469 266.492188 118.8125 266.789062 117.722656 266.6875 C 116.429688 266.492188 114.546875 265.398438 113.753906 264.308594 C 113.15625 263.414062 112.957031 261.925781 113.15625 260.835938 C 113.355469 259.742188 114.941406 257.859375 114.941406 257.859375 "/></clipPath><clipPath id="4bce054397"><path d="M 0 0.0507812 L 32.863281 0.0507812 L 32.863281 29.710938 L 0 29.710938 Z M 0 0.0507812 "/></clipPath><clipPath id="fd5154a71c"><path d="M 1.941406 20.859375 C 27.34375 0.0234375 28.136719 0.125 29.128906 0.320312 C 30.019531 0.621094 31.113281 1.3125 31.707031 2.007812 C 32.402344 2.800781 32.796875 3.992188 32.796875 4.984375 C 32.898438 5.976562 32.601562 7.265625 31.90625 8.058594 C 31.011719 9.050781 29.128906 10.144531 27.738281 10.144531 C 26.351562 10.042969 24.464844 8.855469 23.671875 7.761719 C 23.074219 6.96875 22.878906 5.679688 22.878906 4.6875 C 22.976562 3.695312 23.472656 2.605469 24.167969 1.808594 C 24.863281 1.117188 25.953125 0.421875 26.945312 0.222656 C 27.9375 0.125 29.226562 0.222656 30.121094 0.71875 C 31.011719 1.117188 31.90625 2.007812 32.300781 3 C 32.796875 4.191406 33.097656 5.777344 32.203125 7.5625 C 29.820312 12.523438 12.558594 26.117188 8.09375 28.597656 C 6.605469 29.492188 5.8125 29.789062 4.722656 29.6875 C 3.429688 29.492188 1.546875 28.398438 0.753906 27.308594 C 0.15625 26.414062 -0.0429688 24.925781 0.15625 23.835938 C 0.355469 22.742188 1.941406 20.859375 1.941406 20.859375 "/></clipPath><clipPath id="45e76afe0a"><rect x="0" width="33" y="0" height="30"/></clipPath><clipPath id="227d3c173d"><path d="M 164.546875 223.199219 L 202.046875 223.199219 L 202.046875 289.90625 L 164.546875 289.90625 Z M 164.546875 223.199219 "/></clipPath><clipPath id="f5de82c53d"><path d="M 164.78125 282.871094 C 175.832031 251.304688 187.570312 230.5625 191.558594 225.890625 C 192.8125 224.523438 193.382812 224.066406 194.523438 223.609375 C 195.546875 223.269531 197.03125 223.15625 198.054688 223.609375 C 199.421875 224.179688 201.246094 226.117188 201.816406 227.484375 C 202.160156 228.625 202.042969 230.105469 201.589844 231.132812 C 201.132812 232.273438 200.335938 233.410156 199.195312 233.980469 C 197.941406 234.550781 195.320312 234.894531 193.953125 234.210938 C 192.472656 233.527344 190.992188 231.359375 190.648438 229.992188 C 190.421875 228.738281 190.761719 227.371094 191.21875 226.347656 C 191.789062 225.320312 192.699219 224.296875 193.953125 223.839844 C 195.320312 223.382812 197.941406 223.496094 199.195312 224.179688 C 200.335938 224.75 201.132812 225.890625 201.589844 226.917969 C 202.042969 228.054688 202.160156 228.851562 201.816406 230.5625 C 200.449219 236.375 186.660156 255.40625 181.875 266.003906 C 178.339844 274.097656 177.316406 284.808594 174.578125 288 C 173.441406 289.367188 172.1875 289.707031 170.933594 289.824219 C 169.679688 290.050781 168.085938 289.59375 167.058594 288.910156 C 166.03125 288.113281 165.121094 286.632812 164.78125 285.492188 C 164.4375 284.582031 164.78125 282.871094 164.78125 282.871094 "/></clipPath><clipPath id="dbdd7040a6"><path d="M 0.546875 0.199219 L 38.046875 0.199219 L 38.046875 66.90625 L 0.546875 66.90625 Z M 0.546875 0.199219 "/></clipPath><clipPath id="32d6e4923b"><path d="M 0.78125 59.871094 C 11.832031 28.304688 23.570312 7.5625 27.558594 2.890625 C 28.8125 1.523438 29.382812 1.066406 30.523438 0.609375 C 31.546875 0.269531 33.03125 0.15625 34.054688 0.609375 C 35.421875 1.179688 37.246094 3.117188 37.816406 4.484375 C 38.160156 5.625 38.042969 7.105469 37.589844 8.132812 C 37.132812 9.273438 36.335938 10.410156 35.195312 10.980469 C 33.941406 11.550781 31.320312 11.894531 29.953125 11.210938 C 28.472656 10.527344 26.992188 8.359375 26.648438 6.992188 C 26.421875 5.738281 26.761719 4.371094 27.21875 3.347656 C 27.789062 2.320312 28.699219 1.296875 29.953125 0.839844 C 31.320312 0.382812 33.941406 0.496094 35.195312 1.179688 C 36.335938 1.75 37.132812 2.890625 37.589844 3.917969 C 38.042969 5.054688 38.160156 5.851562 37.816406 7.5625 C 36.449219 13.375 22.660156 32.40625 17.875 43.003906 C 14.339844 51.097656 13.316406 61.808594 10.578125 65 C 9.441406 66.367188 8.1875 66.707031 6.933594 66.824219 C 5.679688 67.050781 4.085938 66.59375 3.058594 65.910156 C 2.03125 65.113281 1.121094 63.632812 0.78125 62.492188 C 0.4375 61.582031 0.78125 59.871094 0.78125 59.871094 "/></clipPath><clipPath id="e7aa6f86ba"><rect x="0" width="39" y="0" height="67"/></clipPath><clipPath id="cde0039dea"><path d="M 210.589844 237.265625 L 253.53125 237.265625 L 253.53125 287.832031 L 210.589844 287.832031 Z M 210.589844 237.265625 "/></clipPath><clipPath id="df9e69ff80"><path d="M 217.269531 237.632812 C 235.636719 243.292969 242.046875 246.175781 245.570312 247.992188 C 247.707031 249.058594 249.199219 249.488281 250.375 250.980469 C 251.871094 252.691406 253.6875 256.109375 253.367188 258.136719 C 253.152344 259.953125 251.121094 261.449219 249.628906 262.835938 C 248.132812 264.332031 246.53125 264.652344 244.179688 266.46875 C 239.054688 270.527344 225.707031 286.011719 221.21875 287.507812 C 219.722656 288.039062 218.871094 287.71875 217.800781 287.292969 C 216.839844 286.867188 215.878906 286.011719 215.347656 285.050781 C 214.707031 284.089844 214.492188 282.699219 214.597656 281.632812 C 214.707031 280.566406 215.238281 279.390625 216.09375 278.640625 C 217.160156 277.679688 219.402344 276.828125 220.898438 277.148438 C 222.289062 277.359375 224.210938 278.855469 224.851562 280.246094 C 225.386719 281.527344 225.0625 283.980469 224.421875 285.15625 C 223.890625 286.226562 222.820312 286.972656 221.753906 287.398438 C 220.792969 287.71875 219.402344 287.828125 218.441406 287.507812 C 217.375 287.1875 216.199219 286.4375 215.558594 285.476562 C 214.917969 284.304688 214.277344 282.488281 214.917969 280.566406 C 216.199219 276.507812 225.597656 268.925781 229.871094 264.867188 C 232.96875 261.875 235.210938 259.527344 237.988281 257.710938 C 240.335938 256.320312 243.96875 253.972656 245.140625 254.71875 C 246.101562 255.359375 246.421875 259.847656 245.460938 260.378906 C 244.179688 261.234375 239.480469 256.640625 235.210938 254.828125 C 229.230469 252.050781 215.558594 249.488281 212.355469 246.710938 C 211.074219 245.640625 210.753906 244.46875 210.648438 243.292969 C 210.539062 242.117188 210.96875 240.621094 211.609375 239.660156 C 212.25 238.699219 213.742188 237.847656 214.8125 237.527344 C 215.667969 237.3125 217.269531 237.632812 217.269531 237.632812 "/></clipPath><clipPath id="d05e8cdf11"><path d="M 0.589844 0.265625 L 43.53125 0.265625 L 43.53125 50.832031 L 0.589844 50.832031 Z M 0.589844 0.265625 "/></clipPath><clipPath id="c64ff4f525"><path d="M 7.269531 0.632812 C 25.636719 6.292969 32.046875 9.175781 35.570312 10.992188 C 37.707031 12.058594 39.199219 12.488281 40.375 13.980469 C 41.871094 15.691406 43.6875 19.109375 43.367188 21.136719 C 43.152344 22.953125 41.121094 24.449219 39.628906 25.835938 C 38.132812 27.332031 36.53125 27.652344 34.179688 29.46875 C 29.054688 33.527344 15.707031 49.011719 11.21875 50.507812 C 9.722656 51.039062 8.871094 50.71875 7.800781 50.292969 C 6.839844 49.867188 5.878906 49.011719 5.347656 48.050781 C 4.707031 47.089844 4.492188 45.699219 4.597656 44.632812 C 4.707031 43.566406 5.238281 42.390625 6.09375 41.640625 C 7.160156 40.679688 9.402344 39.828125 10.898438 40.148438 C 12.289062 40.359375 14.210938 41.855469 14.851562 43.246094 C 15.386719 44.527344 15.0625 46.980469 14.421875 48.15625 C 13.890625 49.226562 12.820312 49.972656 11.753906 50.398438 C 10.792969 50.71875 9.402344 50.828125 8.441406 50.507812 C 7.375 50.1875 6.199219 49.4375 5.558594 48.476562 C 4.917969 47.304688 4.277344 45.488281 4.917969 43.566406 C 6.199219 39.507812 15.597656 31.925781 19.871094 27.867188 C 22.96875 24.875 25.210938 22.527344 27.988281 20.710938 C 30.335938 19.320312 33.96875 16.972656 35.140625 17.71875 C 36.101562 18.359375 36.421875 22.847656 35.460938 23.378906 C 34.179688 24.234375 29.480469 19.640625 25.210938 17.828125 C 19.230469 15.050781 5.558594 12.488281 2.355469 9.710938 C 1.074219 8.640625 0.753906 7.46875 0.648438 6.292969 C 0.539062 5.117188 0.96875 3.621094 1.609375 2.660156 C 2.25 1.699219 3.742188 0.847656 4.8125 0.527344 C 5.667969 0.3125 7.269531 0.632812 7.269531 0.632812 "/></clipPath><clipPath id="6b3c6fd6b5"><rect x="0" width="44" y="0" height="51"/></clipPath><clipPath id="5ab6ab0e40"><path d="M 112.8125 259 L 150.144531 259 L 150.144531 282.375 L 112.8125 282.375 Z M 112.8125 259 "/></clipPath><clipPath id="5e32439289"><path d="M 118.921875 259.046875 C 137.417969 266.082031 145.800781 271.089844 148.308594 273.691406 C 149.367188 274.847656 149.847656 275.714844 150.042969 276.679688 C 150.234375 277.449219 150.136719 278.222656 149.847656 278.992188 C 149.464844 279.859375 148.597656 281.113281 147.632812 281.59375 C 146.667969 282.074219 145.222656 282.269531 144.261719 282.074219 C 143.488281 281.980469 142.71875 281.785156 142.140625 281.113281 C 141.371094 279.957031 140.792969 275.8125 141.464844 274.367188 C 141.949219 273.5 143.105469 273.019531 144.066406 272.730469 C 145.03125 272.535156 146.285156 272.632812 147.152344 272.921875 C 148.019531 273.308594 148.980469 274.175781 149.464844 275.042969 C 149.945312 275.8125 150.234375 276.96875 150.042969 278.027344 C 149.753906 279.28125 148.5 281.015625 147.441406 281.691406 C 146.574219 282.269531 145.320312 282.363281 144.355469 282.171875 C 143.394531 281.980469 142.332031 281.496094 141.660156 280.628906 C 140.984375 279.667969 140.308594 277.546875 140.597656 276.292969 C 140.886719 274.945312 142.332031 273.402344 143.585938 272.921875 C 144.839844 272.441406 146.957031 272.824219 148.019531 273.5 C 148.886719 273.980469 149.558594 275.042969 149.847656 275.910156 C 150.136719 276.871094 149.945312 278.992188 149.753906 278.992188 C 149.558594 279.089844 148.113281 273.789062 148.308594 273.691406 C 148.5 273.597656 149.847656 275.621094 150.042969 276.679688 C 150.234375 277.738281 149.847656 279.089844 149.269531 280.050781 C 148.691406 280.917969 147.535156 281.691406 146.574219 282.074219 C 145.800781 282.269531 145.320312 282.363281 144.261719 282.074219 C 141.273438 281.304688 133.566406 275.042969 128.363281 272.441406 C 123.542969 270.128906 116.320312 268.777344 114.199219 267.042969 C 113.429688 266.371094 113.234375 265.886719 113.042969 265.117188 C 112.753906 264.152344 112.753906 262.707031 113.140625 261.746094 C 113.621094 260.683594 114.585938 259.722656 115.546875 259.238281 C 116.511719 258.855469 118.921875 259.046875 118.921875 259.046875 "/></clipPath><clipPath id="06e0682118"><path d="M 0.8125 0 L 38.144531 0 L 38.144531 23.375 L 0.8125 23.375 Z M 0.8125 0 "/></clipPath><clipPath id="1fa0f910f4"><path d="M 6.921875 0.046875 C 25.417969 7.082031 33.800781 12.089844 36.308594 14.691406 C 37.367188 15.847656 37.847656 16.714844 38.042969 17.679688 C 38.234375 18.449219 38.136719 19.222656 37.847656 19.992188 C 37.464844 20.859375 36.597656 22.113281 35.632812 22.59375 C 34.667969 23.074219 33.222656 23.269531 32.261719 23.074219 C 31.488281 22.980469 30.71875 22.785156 30.140625 22.113281 C 29.371094 20.957031 28.792969 16.8125 29.464844 15.367188 C 29.949219 14.5 31.105469 14.019531 32.066406 13.730469 C 33.03125 13.535156 34.285156 13.632812 35.152344 13.921875 C 36.019531 14.308594 36.980469 15.175781 37.464844 16.042969 C 37.945312 16.8125 38.234375 17.96875 38.042969 19.027344 C 37.753906 20.28125 36.5 22.015625 35.441406 22.691406 C 34.574219 23.269531 33.320312 23.363281 32.355469 23.171875 C 31.394531 22.980469 30.332031 22.496094 29.660156 21.628906 C 28.984375 20.667969 28.308594 18.546875 28.597656 17.292969 C 28.886719 15.945312 30.332031 14.402344 31.585938 13.921875 C 32.839844 13.441406 34.957031 13.824219 36.019531 14.5 C 36.886719 14.980469 37.558594 16.042969 37.847656 16.910156 C 38.136719 17.871094 37.945312 19.992188 37.753906 19.992188 C 37.558594 20.089844 36.113281 14.789062 36.308594 14.691406 C 36.5 14.597656 37.847656 16.621094 38.042969 17.679688 C 38.234375 18.738281 37.847656 20.089844 37.269531 21.050781 C 36.691406 21.917969 35.535156 22.691406 34.574219 23.074219 C 33.800781 23.269531 33.320312 23.363281 32.261719 23.074219 C 29.273438 22.304688 21.566406 16.042969 16.363281 13.441406 C 11.542969 11.128906 4.320312 9.777344 2.199219 8.042969 C 1.429688 7.371094 1.234375 6.886719 1.042969 6.117188 C 0.753906 5.152344 0.753906 3.707031 1.140625 2.746094 C 1.621094 1.683594 2.585938 0.722656 3.546875 0.238281 C 4.511719 -0.144531 6.921875 0.046875 6.921875 0.046875 "/></clipPath><clipPath id="1fb81568ef"><rect x="0" width="39" y="0" height="24"/></clipPath></defs><g id="34192602f4"><g clip-rule="nonzero" clip-path="url(#4c15c9ded3)"><g clip-rule="nonzero" clip-path="url(#0a694850bc)"><g transform="matrix(1,0,0,1,0,11)"><g clip-path="url(#47806686ad)"><g clip-rule="nonzero" clip-path="url(#e7e366b9fa)"><g clip-rule="nonzero" clip-path="url(#83594c06bc)"><path style=" stroke:none;fill-rule:nonzero;fill:#ffffff;fill-opacity:1;" d="M 0 0.507812 L 371.238281 0.507812 L 371.238281 352.492188 L 0 352.492188 Z M 0 0.507812 "/></g></g></g></g></g></g><g clip-rule="nonzero" clip-path="url(#365d932fa3)"><g clip-rule="nonzero" clip-path="url(#41b9c70d52)"><path style="fill:none;stroke-width:40;stroke-linecap:butt;stroke-linejoin:miter;stroke:#005a8f;stroke-opacity:1;stroke-miterlimit:4;" d="M 460.020828 140.552931 C 439.531245 94.099805 410.708328 47.407097 364.01562 23.344597 C 359.723953 21.203972 355.197911 19.058139 350.67187 17.391472 C 328.51562 7.625847 305.17187 2.381055 281.109369 1.42793 C 277.776036 0.953972 274.203119 0.474805 270.630203 0.24043 C 247.755203 -1.431445 227.031244 3.33418 207.973953 12.151889 C 173.192703 22.870639 139.364578 40.02168 110.776036 61.224805 C 73.374994 89.33418 42.406244 125.547722 23.822911 168.901889 C 12.864577 194.396681 6.671869 221.073764 3.333327 248.709181 C -0.239589 277.297722 -2.145839 307.313348 4.052077 335.427931 C 15.010411 384.500848 55.505202 423.568556 99.578119 444.771681 C 145.796869 466.927931 197.489578 473.599806 247.994786 466.927931 C 301.598953 459.782098 352.57812 438.578973 398.317703 409.990431 C 439.531245 384.261264 479.317703 349.480014 490.749995 300.167514 C 503.374995 245.136264 481.697911 190.105014 460.020828 140.552931 Z M 460.020828 140.552931 " transform="matrix(0.75,0,0,0.75,0.0000045,11.507177)"/></g></g><g transform="matrix(1,0,0,1,90,72)"><g clip-path="url(#a4fbab2bba)"><g style="fill:#005a8f;fill-opacity:1;"><g transform="translate(1.16275, 121.019922)"><path style="stroke:none" d="M 70.375 -31.3125 C 71.019531 -31.3125 71.515625 -31.070312 71.859375 -30.59375 C 72.203125 -30.125 72.503906 -29.648438 72.765625 -29.171875 C 73.023438 -28.648438 73.640625 -27.382812 74.609375 -25.375 C 75.578125 -23.375 76.609375 -21.175781 77.703125 -18.78125 C 78.804688 -16.394531 79.769531 -14.273438 80.59375 -12.421875 C 81.414062 -10.566406 81.828125 -9.507812 81.828125 -9.25 C 81.828125 -8.945312 81.707031 -8.65625 81.46875 -8.375 C 81.226562 -8.09375 81 -7.867188 80.78125 -7.703125 C 78.414062 -5.796875 75.550781 -4.207031 72.1875 -2.9375 C 68.820312 -1.664062 65.359375 -0.707031 61.796875 -0.0625 C 58.242188 0.582031 54.957031 0.90625 51.9375 0.90625 C 42.363281 0.90625 34.0625 -0.9375 27.03125 -4.625 C 20.007812 -8.3125 14.578125 -13.613281 10.734375 -20.53125 C 6.898438 -27.457031 4.984375 -35.75 4.984375 -45.40625 C 4.984375 -54.414062 6.640625 -62.238281 9.953125 -68.875 C 13.273438 -75.519531 18.140625 -80.664062 24.546875 -84.3125 C 30.953125 -87.957031 38.722656 -89.78125 47.859375 -89.78125 C 50.753906 -89.78125 54 -89.5 57.59375 -88.9375 C 61.195312 -88.375 64.734375 -87.550781 68.203125 -86.46875 C 71.679688 -85.394531 74.625 -84.0625 77.03125 -82.46875 C 77.894531 -81.90625 78.328125 -81.238281 78.328125 -80.46875 C 78.328125 -80.289062 78.066406 -79.519531 77.546875 -78.15625 C 77.035156 -76.800781 76.390625 -75.15625 75.609375 -73.21875 C 74.835938 -71.28125 74.050781 -69.304688 73.25 -67.296875 C 72.457031 -65.296875 71.75 -63.539062 71.125 -62.03125 C 70.5 -60.519531 70.078125 -59.550781 69.859375 -59.125 C 69.640625 -58.644531 69.378906 -58.195312 69.078125 -57.78125 C 68.773438 -57.375 68.320312 -57.171875 67.71875 -57.171875 C 67.25 -57.171875 66.3125 -57.515625 64.90625 -58.203125 C 63.507812 -58.898438 61.847656 -59.59375 59.921875 -60.28125 C 58.003906 -60.96875 56.035156 -61.3125 54.015625 -61.3125 C 50.773438 -61.3125 47.6875 -60.726562 44.75 -59.5625 C 41.820312 -58.40625 39.441406 -56.648438 37.609375 -54.296875 C 35.773438 -51.953125 34.859375 -48.96875 34.859375 -45.34375 C 34.859375 -38.914062 36.765625 -34.363281 40.578125 -31.6875 C 44.398438 -29.019531 49.265625 -27.6875 55.171875 -27.6875 C 57.367188 -27.6875 59.578125 -27.910156 61.796875 -28.359375 C 64.023438 -28.816406 66.128906 -29.539062 68.109375 -30.53125 C 68.535156 -30.75 68.898438 -30.929688 69.203125 -31.078125 C 69.503906 -31.234375 69.894531 -31.3125 70.375 -31.3125 Z M 70.375 -31.3125 "/></g></g><g style="fill:#005a8f;fill-opacity:1;"><g transform="translate(87.507157, 121.019922)"><path style="stroke:none" d="M 70.375 -31.3125 C 71.019531 -31.3125 71.515625 -31.070312 71.859375 -30.59375 C 72.203125 -30.125 72.503906 -29.648438 72.765625 -29.171875 C 73.023438 -28.648438 73.640625 -27.382812 74.609375 -25.375 C 75.578125 -23.375 76.609375 -21.175781 77.703125 -18.78125 C 78.804688 -16.394531 79.769531 -14.273438 80.59375 -12.421875 C 81.414062 -10.566406 81.828125 -9.507812 81.828125 -9.25 C 81.828125 -8.945312 81.707031 -8.65625 81.46875 -8.375 C 81.226562 -8.09375 81 -7.867188 80.78125 -7.703125 C 78.414062 -5.796875 75.550781 -4.207031 72.1875 -2.9375 C 68.820312 -1.664062 65.359375 -0.707031 61.796875 -0.0625 C 58.242188 0.582031 54.957031 0.90625 51.9375 0.90625 C 42.363281 0.90625 34.0625 -0.9375 27.03125 -4.625 C 20.007812 -8.3125 14.578125 -13.613281 10.734375 -20.53125 C 6.898438 -27.457031 4.984375 -35.75 4.984375 -45.40625 C 4.984375 -54.414062 6.640625 -62.238281 9.953125 -68.875 C 13.273438 -75.519531 18.140625 -80.664062 24.546875 -84.3125 C 30.953125 -87.957031 38.722656 -89.78125 47.859375 -89.78125 C 50.753906 -89.78125 54 -89.5 57.59375 -88.9375 C 61.195312 -88.375 64.734375 -87.550781 68.203125 -86.46875 C 71.679688 -85.394531 74.625 -84.0625 77.03125 -82.46875 C 77.894531 -81.90625 78.328125 -81.238281 78.328125 -80.46875 C 78.328125 -80.289062 78.066406 -79.519531 77.546875 -78.15625 C 77.035156 -76.800781 76.390625 -75.15625 75.609375 -73.21875 C 74.835938 -71.28125 74.050781 -69.304688 73.25 -67.296875 C 72.457031 -65.296875 71.75 -63.539062 71.125 -62.03125 C 70.5 -60.519531 70.078125 -59.550781 69.859375 -59.125 C 69.640625 -58.644531 69.378906 -58.195312 69.078125 -57.78125 C 68.773438 -57.375 68.320312 -57.171875 67.71875 -57.171875 C 67.25 -57.171875 66.3125 -57.515625 64.90625 -58.203125 C 63.507812 -58.898438 61.847656 -59.59375 59.921875 -60.28125 C 58.003906 -60.96875 56.035156 -61.3125 54.015625 -61.3125 C 50.773438 -61.3125 47.6875 -60.726562 44.75 -59.5625 C 41.820312 -58.40625 39.441406 -56.648438 37.609375 -54.296875 C 35.773438 -51.953125 34.859375 -48.96875 34.859375 -45.34375 C 34.859375 -38.914062 36.765625 -34.363281 40.578125 -31.6875 C 44.398438 -29.019531 49.265625 -27.6875 55.171875 -27.6875 C 57.367188 -27.6875 59.578125 -27.910156 61.796875 -28.359375 C 64.023438 -28.816406 66.128906 -29.539062 68.109375 -30.53125 C 68.535156 -30.75 68.898438 -30.929688 69.203125 -31.078125 C 69.503906 -31.234375 69.894531 -31.3125 70.375 -31.3125 Z M 70.375 -31.3125 "/></g></g></g></g><g clip-rule="nonzero" clip-path="url(#f2f54f7a43)"><g clip-rule="nonzero" clip-path="url(#468c57fb2e)"><g transform="matrix(1,0,0,1,113,237)"><g clip-path="url(#45e76afe0a)"><g clip-rule="nonzero" clip-path="url(#4bce054397)"><g clip-rule="nonzero" clip-path="url(#fd5154a71c)"><rect x="0" width="33" height="30" y="0" style="fill:#005a8f;fill-opacity:1;stroke:none;"/></g></g></g></g></g></g><g clip-rule="nonzero" clip-path="url(#227d3c173d)"><g clip-rule="nonzero" clip-path="url(#f5de82c53d)"><g transform="matrix(1,0,0,1,164,223)"><g clip-path="url(#e7aa6f86ba)"><g clip-rule="nonzero" clip-path="url(#dbdd7040a6)"><g clip-rule="nonzero" clip-path="url(#32d6e4923b)"><rect x="0" width="39" height="67" y="0" style="fill:#005a8f;fill-opacity:1;stroke:none;"/></g></g></g></g></g></g><g clip-rule="nonzero" clip-path="url(#cde0039dea)"><g clip-rule="nonzero" clip-path="url(#df9e69ff80)"><g transform="matrix(1,0,0,1,210,237)"><g clip-path="url(#6b3c6fd6b5)"><g clip-rule="nonzero" clip-path="url(#d05e8cdf11)"><g clip-rule="nonzero" clip-path="url(#c64ff4f525)"><rect x="0" width="44" height="51" y="0" style="fill:#005a8f;fill-opacity:1;stroke:none;"/></g></g></g></g></g></g><g clip-rule="nonzero" clip-path="url(#5ab6ab0e40)"><g clip-rule="nonzero" clip-path="url(#5e32439289)"><g transform="matrix(1,0,0,1,112,259)"><g clip-path="url(#1fb81568ef)"><g clip-rule="nonzero" clip-path="url(#06e0682118)"><g clip-rule="nonzero" clip-path="url(#1fa0f910f4)"><rect x="0" width="39" height="24" y="0" style="fill:#005a8f;fill-opacity:1;stroke:none;"/></g></g></g></g></g></g></g></svg>